<svg width="96" height="96" xmlns="http://www.w3.org/2000/svg" xmlns:xlink="http://www.w3.org/1999/xlink" xml:space="preserve" overflow="hidden"><g transform="translate(-17 -10)"><path d="M64.986 20C44.0108 20 27.007 37.0038 27.007 57.979 27.007 78.9542 44.0108 95.958 64.986 95.958 85.9612 95.958 102.965 78.9542 102.965 57.979 102.965 57.9777 102.965 57.9763 102.965 57.975 102.972 37.0092 85.9818 20.0072 65.016 20 65.006 20 64.996 20 64.986 20ZM83.605 61.36 68.367 61.36 68.367 76.594 61.605 76.594 61.605 61.356 46.367 61.356 46.367 54.594 61.605 54.594 61.605 39.356 68.367 39.356 68.367 54.594 83.605 54.594Z" fill="#EEAA2C"/></g></svg>