<svg width="96" height="96" xmlns="http://www.w3.org/2000/svg" xmlns:xlink="http://www.w3.org/1999/xlink" xml:space="preserve" overflow="hidden"><g transform="translate(-772 -345)"><path d="M854 359 786 359C783.8 359 782 360.8 782 363 782 365.2 783.8 367 786 367L787.5 367 797 423.8C797.4 425.7 799 427 800.9 427L838.9 427C840.8 427 842.5 425.6 842.8 423.8L852.5 367 854 367C856.2 367 858 365.2 858 363 858 360.8 856.2 359 854 359ZM804 404C804.4 404.6 805.1 405 805.9 405L811.9 405 811.9 409 805.9 409C803.7 409 801.6 407.8 800.5 405.9 799.5 404 799.5 401.9 800.7 399.9L805.8 391.1 802.4 389.2 810.6 387 812.8 395.2 809.2 393.1 804.2 402C803.7 402.7 803.6 403.4 804 404ZM812 381.3 815 376.1C816.1 374.2 818.1 372.9 820.3 373 822.4 373 824.3 374.2 825.4 376.2L830.5 385 833.9 383.1 831.7 391.3 823.5 389.1 827 387 821.9 378.1C821.5 377.3 820.9 377 820.3 376.9 819.6 376.9 818.9 377.3 818.5 378L815.5 383.2 812 381.3ZM839.4 406.3C838.3 408.1 836.5 409.1 834.3 409.1 834.2 409.1 834.2 409.1 834.1 409.1L823.9 409.1 823.9 413 817.9 407 823.9 401 823.9 405.1 834.1 405.1C835 405.1 835.6 404.8 835.9 404.3 836.3 403.7 836.2 402.9 835.8 402.2L832.8 397 836.3 395 839.3 400.2C839.6 400.7 839.8 401.1 839.9 401.6L840.3 401.8 840 401.9C840.4 403.4 840.2 405 839.4 406.3Z" fill="#EEAA2C"/></g></svg>