<svg width="24" height="24" xmlns="http://www.w3.org/2000/svg" xmlns:xlink="http://www.w3.org/1999/xlink" xml:space="preserve" overflow="hidden"><g transform="translate(-628 -348)"><path d="M648 357 646.005 368.346C645.837 369.303 645.006 370 644.035 370L635.965 370C634.994 370 634.163 369.303 633.995 368.346L632 357" stroke="#EEAA2C" stroke-width="1.50005" fill="#EEAA2C"/><path d="M648 357 646.005 368.346C645.837 369.303 645.006 370 644.035 370L635.965 370C634.994 370 634.163 369.303 633.995 368.346L632 357 648 357Z" stroke="#EEAA2C" stroke-width="1.50005" stroke-linecap="round" stroke-linejoin="round" fill="#EEAA2C"/><path d="M649 354 643.375 354M631 354 636.625 354M636.625 354 636.625 352C636.625 350.895 637.52 350 638.625 350L641.375 350C642.48 350 643.375 350.895 643.375 352L643.375 354M636.625 354 643.375 354" stroke="#EEAA2C" stroke-width="1.50005" stroke-linecap="round" stroke-linejoin="round" fill="#EEAA2C"/></g></svg>